<svg width="24" height="24" viewBox="0 0 24 24" fill="none" xmlns="http://www.w3.org/2000/svg">
<path fill-rule="evenodd" clip-rule="evenodd" d="M15.4646 6.22795C15.2521 6.39244 15.095 6.575 15.0235 6.68057L15.0217 6.68321C14.6571 7.21808 13.9879 7.44693 13.3742 7.2544C13.2947 7.22945 13.1334 7.18227 12.96 7.14245C12.7678 7.09827 12.6379 7.08149 12.5893 7.08149C12.0371 7.08149 11.5893 6.63378 11.5893 6.08149C11.5893 5.52921 12.0371 5.08149 12.5893 5.08149C12.8766 5.08149 13.191 5.14339 13.4079 5.19324C13.4784 5.20943 13.5467 5.22633 13.6111 5.24304C13.8663 4.94657 14.2289 4.61235 14.6795 4.34968C15.3185 3.97725 16.2047 3.7134 17.2037 4.01499C17.2855 4.03968 17.4861 4.10951 17.6664 4.29411C17.769 4.39914 17.8966 4.57519 17.9442 4.8256C17.994 5.0881 17.9354 5.32469 17.8429 5.50136C17.8307 5.52454 17.8177 5.54724 17.8038 5.5694C17.4325 6.16055 17.3668 6.68489 17.4875 7.12865C18.4684 7.96063 19.217 8.99246 19.6595 10.1406C20.4468 10.3175 21.035 11.0208 21.035 11.8614V13.1932C21.035 14.0136 20.4661 14.7012 19.7014 14.883C19.2906 16.014 18.5795 17.0343 17.6505 17.8668C17.6397 17.8773 17.6287 17.8875 17.6175 17.8976C17.588 17.9237 17.56 17.947 17.544 17.9604L17.5415 17.9625C17.5308 17.9714 17.5245 17.9767 17.5204 17.9802C17.5086 17.9909 17.4923 18.0053 17.4721 18.0216C16.8217 18.6343 16.7543 19.3248 16.748 19.4987V20.1744C16.748 20.7267 16.3003 21.1744 15.748 21.1744H12.9808C12.4285 21.1744 11.9808 20.7267 11.9808 20.1744V20.1084C11.8383 20.1152 11.6944 20.119 11.5493 20.119C11.3182 20.119 11.0865 20.1106 10.8567 20.0945V20.1783C10.8567 20.7306 10.409 21.1783 9.85671 21.1783H7.08955C6.53727 21.1783 6.08955 20.7306 6.08955 20.1783V19.9805C6.06734 19.5656 5.92833 18.6087 5.19867 17.8593L5.19681 17.8574C4.63282 17.275 4.15462 16.5388 3.75977 15.6896C3.51524 15.2162 3.33193 14.7209 3.2041 14.217C3.1974 14.1948 3.1906 14.1695 3.18446 14.1414C3.18149 14.1278 3.17865 14.1135 3.17604 14.0985C3.05858 13.5969 3 13.0839 3 12.5715C3 12.1971 3.03154 11.8215 3.09521 11.4532C3.18927 10.909 3.7067 10.544 4.25091 10.6381C4.79513 10.7322 5.16005 11.2496 5.06599 11.7938C5.02219 12.0472 5 12.3088 5 12.5715C5 12.9454 5.04438 13.3188 5.13281 13.682C5.13573 13.694 5.13843 13.7061 5.1409 13.7182C5.23174 14.0783 5.35984 14.4253 5.52642 14.7517C5.54863 14.7912 5.56461 14.8259 5.57471 14.8494C5.89796 15.5439 6.25889 16.0789 6.6326 16.4651C7.51698 17.3739 7.86574 18.4297 8.0034 19.1783H8.89264C8.96048 18.8792 9.12154 18.608 9.3515 18.4046C9.65903 18.1325 10.0815 17.9912 10.5133 18.0513C10.8545 18.0954 11.2047 18.119 11.5493 18.119C11.8132 18.119 12.084 18.1026 12.3647 18.0747C12.7896 18.028 13.1917 18.1715 13.4899 18.4353C13.716 18.6353 13.8687 18.8938 13.9381 19.1744H14.7684C14.8353 18.5786 15.1069 17.4653 16.1664 16.5051C16.187 16.4865 16.2082 16.4688 16.23 16.4521C16.2427 16.4413 16.2536 16.4323 16.2611 16.4261C16.2669 16.4212 16.2714 16.4174 16.275 16.4144C16.2832 16.4067 16.2914 16.399 16.2998 16.3916C17.0808 15.6967 17.6284 14.856 17.9002 13.9646L17.9025 13.957C18.0667 13.4336 18.5044 13.0501 19.035 12.9537V12.0798C18.496 11.9944 18.0468 11.6118 17.8761 11.0915M16.1424 16.5313C16.1357 16.5379 16.1418 16.5313 16.1564 16.5176C16.1517 16.5221 16.147 16.5267 16.1424 16.5313ZM5.59234 14.8924C5.59234 14.8924 5.59115 14.8896 5.58775 14.8811C5.59047 14.8877 5.59234 14.8924 5.59234 14.8924ZM5.05996 13.4897L5.05791 13.4855L5.05841 13.4865M3.26627 14.3744L3.2683 14.3785L3.26782 14.3775M15.4646 6.22795C15.4043 6.67771 15.4261 7.13467 15.5405 7.58822C15.5839 7.96109 15.7702 8.31326 16.0792 8.55895C16.9518 9.26403 17.5649 10.1456 17.8761 11.0915" fill="white"/>
<path fill-rule="evenodd" clip-rule="evenodd" d="M3.62749 6.52092C3.62749 4.57837 5.20586 3 7.1484 3C9.09095 3 10.6693 4.57837 10.6693 6.52092C10.6693 8.46346 9.09095 10.0418 7.1484 10.0418C5.20586 10.0418 3.62749 8.46346 3.62749 6.52092ZM7.1484 5C6.31043 5 5.62749 5.68294 5.62749 6.52092C5.62749 7.35889 6.31043 8.04183 7.1484 8.04183C7.98637 8.04183 8.66932 7.35889 8.66932 6.52092C8.66932 5.68294 7.98637 5 7.1484 5Z" fill="white"/>
</svg>
