<svg width="24" height="24" viewBox="0 0 24 24" fill="none" xmlns="http://www.w3.org/2000/svg">
<path fill-rule="evenodd" clip-rule="evenodd" d="M11.8991 2.80627C13.2134 1.30669 15.6769 2.24763 15.6769 4.2286V9.72696H17.4087C19.2687 9.72696 20.2639 11.9131 19.0317 13.3132L19.0316 13.3133L12.0963 21.1922C12.096 21.1926 12.0957 21.193 12.0953 21.1934C10.7811 22.6935 8.31731 21.7525 8.31731 19.7714V14.273H6.58552C4.72523 14.273 3.75075 12.0848 4.95696 10.6931L4.96251 10.6867L4.96253 10.6867L11.8978 2.80775C11.8982 2.80726 11.8987 2.80677 11.8991 2.80627ZM13.4769 4.3435L6.67309 12.073H9.41731C10.0248 12.073 10.5173 12.5655 10.5173 13.173V19.6565L17.3211 11.927H14.5769C13.9693 11.927 13.4769 11.4345 13.4769 10.827V4.3435Z" fill="white"/>
</svg>
